<svg width="183" height="70" viewBox="0 0 183 70" fill="none" xmlns="http://www.w3.org/2000/svg">
<path d="M39.8655 68.3984C39.8655 68.343 39.8655 68.2876 39.8655 68.2322C41.6385 68.2322 43.4114 68.2322 45.1844 68.2322C45.1844 68.2876 45.1844 68.343 45.1844 68.3984C43.4114 68.3984 41.6385 68.3984 39.8655 68.3984Z" fill="#212124"/>
<path d="M45.1845 68.2045C43.4115 68.2045 41.6386 68.2045 39.8656 68.2045C38.4804 67.9829 37.0676 68.2599 35.627 67.8443C34.602 67.5396 34.325 66.9856 34.3527 66.0991C34.4358 62.47 34.2696 58.8686 34.1588 55.2395C33.7987 44.9895 33.4108 34.7671 33.0507 24.5171C32.9122 20.5833 32.9676 16.6772 33.1338 12.7434C33.1892 11.6907 33.6601 10.9427 34.5743 10.4717C35.1284 10.167 35.7379 9.88998 36.3473 9.69606C43.4669 7.36902 50.4481 4.68184 57.6231 2.54872C60.4765 1.68993 63.3576 0.914251 66.211 0.110868C67.7346 -0.304674 68.9536 0.471006 69.2306 2.05007C69.5907 4.15549 69.6461 6.2886 69.7847 8.42172C69.8955 9.80687 69.5353 9.75146 71.2252 9.66835C72.4441 9.61295 73.6631 9.52984 74.882 9.75146C76.0178 9.94538 76.4887 10.5271 76.5442 11.663C76.7935 15.5414 76.7658 19.4475 76.7935 23.3259C76.8489 31.1658 76.9874 39.0057 77.3752 46.8456C77.5415 50.3084 77.5415 53.799 77.5415 57.2896C77.5415 59.672 78.2617 62.0545 77.6523 64.4646C77.5969 64.7139 77.7908 65.0464 77.8462 65.3511C78.0678 66.5423 77.1536 67.4565 75.9347 67.2903C73.4414 66.9856 70.9759 66.9302 68.4549 67.1518C64.3272 67.4842 60.1995 67.7335 56.0717 67.7335C52.415 67.7612 48.7859 68.0937 45.1845 68.2045ZM35.5439 37.0388C35.7101 43.3827 35.8487 49.7544 36.0149 56.0983C36.098 59.2011 36.4581 62.3038 36.4304 65.4065C36.4304 65.7943 36.4581 66.016 36.9568 65.9883C39.5885 65.8774 42.248 65.9883 44.8798 65.7112C51.2792 65.0187 57.6785 65.4342 64.0779 65.3234C65.2968 65.2957 66.5157 65.5173 67.7069 65.2403C69.5353 64.8247 71.4191 64.8801 73.2752 64.7693C74.7435 64.6862 74.6881 64.7139 74.7158 63.2457C74.7435 61.722 74.9651 60.1984 75.0205 58.7024C75.2144 52.6078 74.7158 46.5409 74.5496 40.4462C74.4941 38.2577 74.411 36.0415 74.3556 33.8529C74.1894 26.9549 74.0786 20.0569 74.1894 13.1589C74.2171 12.1893 73.9401 12.1062 73.0813 12.0785C68.0671 11.94 63.0529 12.1339 58.0386 12.217C51.0575 12.3278 44.1041 13.1035 37.0953 12.9373C35.073 12.8819 35.1007 12.9927 35.1007 14.9873C35.1007 22.3563 35.4054 29.6975 35.5439 37.0388ZM39.5885 10.7765C40.3088 10.7488 41.0014 10.6934 41.7217 10.6657C46.819 10.3332 51.9163 9.80687 57.0413 9.94538C60.1995 10.0285 63.3576 9.91768 66.488 9.88998C66.8205 9.88998 67.2914 10.0285 67.2637 9.39132C67.2637 7.00888 67.2637 4.62643 67.2637 2.3271C57.5954 3.73994 48.7305 7.61834 39.5885 10.7765Z" fill="#212124"/>
<path d="M156.938 46.4854C157.353 45.4881 157.769 44.5739 158.074 43.632C159.486 39.255 161.481 35.0996 162.478 30.6117C162.672 29.7252 162.922 28.7002 164.03 28.5617C165.165 28.4232 165.387 29.4482 165.775 30.2238C167.77 34.3239 169.764 38.4239 171.953 42.4131C172.534 43.4935 172.839 44.7401 173.282 45.9037C173.365 46.0976 173.282 46.4577 173.643 46.4023C173.892 46.3746 173.836 46.0976 173.892 45.9037C175.582 41.0834 177.244 36.2908 178.934 31.4705C179.349 30.2793 179.709 29.088 180.097 27.8968C180.319 27.1765 180.707 26.5948 181.566 26.5671C182.12 26.5394 182.563 26.7887 182.812 27.2873C183.2 28.0353 182.951 28.6725 182.397 29.1988C182.009 29.5867 181.815 30.0853 181.621 30.584C180.014 35.1273 178.684 39.7813 176.911 44.2692C176.385 45.5989 175.803 46.8733 175.194 48.1476C174.529 49.5604 173.726 49.5881 172.867 48.2861C171.537 46.2361 170.789 43.8814 169.515 41.8036C167.576 38.6178 165.997 35.2658 164.334 31.886C163.863 32.6894 163.891 33.5482 163.642 34.2962C162.118 39.1996 159.93 43.8536 157.686 48.4523C157.492 48.8679 157.215 49.228 156.688 49.1449C156.107 49.0341 155.774 48.6185 155.636 48.0368C155.137 46.153 154.611 44.2692 154.167 42.3577C152.976 37.2604 151.619 32.1908 150.898 26.9826C150.788 26.29 150.428 25.3204 151.453 25.1265C152.45 24.9326 152.561 25.9576 152.699 26.6502C153.974 32.6894 155.248 38.7286 156.494 44.7955C156.605 45.405 156.633 45.9591 156.938 46.4854Z" fill="#212124"/>
<path d="M23.1884 34.0745C23.1053 38.7009 23.4654 43.3273 23.7147 47.9536C23.7424 48.6185 23.6316 49.3111 23.5208 49.976C23.4654 50.4192 23.1884 50.7239 22.7174 50.7516C22.3019 50.7793 22.0249 50.5023 21.8864 50.1422C21.6924 49.6712 21.5539 49.2003 21.5262 48.6739C21.4708 46.0976 21.3046 43.5489 21.3323 40.9725C21.3323 39.9752 20.9445 39.809 20.1134 39.7813C15.5147 39.532 10.916 39.2827 6.31736 39.0056C5.26465 38.9502 4.21194 38.9225 3.18694 38.7563C2.46666 38.6455 2.32815 38.8671 2.32815 39.532C2.32815 42.5793 2.27274 45.6266 2.24504 48.6462C2.24504 48.951 2.24504 49.2557 2.24504 49.5604C2.27274 50.2253 2.10652 50.8902 1.35855 50.9179C0.527462 50.9456 0.388948 50.1976 0.388948 49.5327C0.388948 47.4273 0.444354 45.3496 0.361245 43.2442C0.167325 38.3408 0.028811 33.4651 0.00110811 28.5616C0.00110811 27.2319 -0.0265947 25.9299 0.195028 24.6278C0.250434 24.1015 0.416651 23.6305 0.915302 23.6028C1.44166 23.5751 1.77409 23.963 1.9126 24.4616C2.10652 25.2096 2.16193 25.9853 2.16193 26.761C2.21734 29.6975 2.27274 32.634 2.27274 35.5705C2.27274 36.3461 2.46666 36.6232 3.32545 36.6786C8.75521 36.9833 14.2127 37.0941 19.6424 37.6482C19.7809 37.6759 19.9195 37.6482 20.058 37.6759C20.8891 37.8144 21.1938 37.5928 21.1938 36.6232C21.1384 32.9387 20.8891 29.2542 21.3323 25.5697C21.4154 24.9049 21.3323 23.9076 22.3019 23.9353C23.2715 23.9907 23.1884 24.9603 23.1884 25.7083C23.1884 28.5339 23.1884 31.3042 23.1884 34.0745Z" fill="#212124"/>
<path d="M140.842 38.6178C141.036 41.7482 139.485 44.6293 137.102 47.0672C135.413 48.8125 133.113 49.4496 130.842 50.0037C127.102 50.9456 123.584 50.0314 120.813 47.7043C117.489 44.9064 115.467 41.2219 115.827 36.5678C116.215 31.332 118.874 27.786 123.777 26.1238C130.232 23.9353 135.967 25.5144 139.79 32.4124C140.427 33.659 140.87 36.3462 140.842 38.6178ZM138.792 37.5928C139.236 33.9637 135.69 29.4759 132.504 28.0076C130.814 27.2319 129.179 27.315 127.379 27.4259C123.944 27.6475 121.284 29.0326 119.262 31.7198C117.101 34.6009 117.018 40.0861 118.985 42.7178C121.146 45.6543 123.944 47.455 127.49 47.8429C131.146 48.2584 134.582 47.5381 136.687 44.0753C137.934 42.0807 138.986 39.9198 138.792 37.5928Z" fill="#212124"/>
<path d="M103.997 35.6536C103.97 32.1631 103.831 28.7002 103.97 25.2097C103.997 24.5448 104.025 23.5752 104.773 23.5475C105.521 23.5198 105.77 24.434 105.826 25.1543C106.214 31.3597 106.38 37.5651 106.518 43.7983C106.546 44.9064 106.546 46.0145 106.74 47.1226C106.879 47.8706 106.851 48.5909 106.629 49.3388C106.491 49.8375 106.214 50.2253 105.66 50.1976C105.106 50.1699 104.829 49.7821 104.745 49.2834C104.524 47.7598 104.274 46.2084 104.274 44.6571C104.274 41.6652 104.274 38.6455 104.274 35.6536C104.164 35.6536 104.081 35.6536 103.997 35.6536Z" fill="#212124"/>
<path d="M91.3927 37.9252C91.3927 40.4185 91.3927 43.7982 91.3927 47.178C91.3927 47.6766 91.365 48.203 91.2819 48.6739C91.1988 49.0618 91.0326 49.4773 90.5339 49.5327C90.0353 49.5881 89.8414 49.1726 89.6752 48.8125C89.2042 47.8429 89.1488 46.7902 89.1488 45.7374C89.1488 42.8286 89.1488 39.9198 89.1488 37.011C89.1488 33.1881 89.1488 29.3651 89.1211 25.5698C89.1211 25.5144 89.1211 25.4313 89.1211 25.3758C89.1488 24.7941 89.2042 24.0738 89.8968 24.0184C90.6171 23.9353 91.0326 24.4894 91.1988 25.1819C91.2819 25.5421 91.3373 25.9022 91.3373 26.29C91.365 29.8914 91.6421 33.4651 91.3927 37.9252Z" fill="#212124"/>
<path d="M175.36 64.4923C175.166 64.4923 174.945 64.4646 174.751 64.4646C174.335 64.4646 173.698 64.1876 173.532 64.5477C173.282 65.0464 173.837 65.5173 174.197 65.7667C175.305 66.5424 176.413 67.3457 177.909 66.7363C178.463 66.5146 179.045 66.293 179.626 66.1268C180.097 65.9883 180.485 66.1545 180.735 66.6255C180.984 67.1241 180.818 67.5397 180.374 67.7613C178.629 68.6201 176.939 69.4789 174.917 68.3707C173.892 67.8167 172.812 67.4011 172.174 66.4038C171.149 64.8248 170.512 63.0241 171.454 61.2511C172.368 59.5335 173.809 58.2869 175.997 58.3977C177.743 58.4808 180.208 60.6693 180.43 62.3315C180.541 63.218 179.876 63.6058 179.239 63.9106C178.02 64.4369 176.718 64.5755 175.36 64.4923ZM178.241 61.9437C177.355 60.4754 176.385 59.9214 175.222 60.143C174.252 60.3369 173.338 61.1957 173.227 62.0268C174.889 61.8606 176.551 62.2207 178.241 61.9437Z" fill="#212124"/>
<path d="M130.731 63.218C131.617 61.9437 132.532 61.0572 133.695 60.4478C134.859 59.8383 136.05 59.6721 137.324 59.8383C138.044 59.9491 138.682 60.2261 139.153 60.8356C140.455 62.5809 141.175 64.5478 141.618 66.6532C141.784 67.4012 141.618 68.066 140.787 68.2323C139.928 68.3985 139.596 67.789 139.457 67.041C139.153 65.6282 138.792 64.2153 138.1 62.9133C137.518 61.8606 136.909 61.5559 135.745 61.916C133.723 62.5532 132.282 63.8552 131.645 65.9329C131.396 66.7363 131.257 67.5674 131.036 68.3985C130.925 68.8694 130.592 69.2019 130.094 69.1187C129.595 69.0633 129.346 68.7032 129.318 68.2045C129.152 65.9883 128.792 63.7721 128.792 61.5559C128.792 60.891 128.736 59.9214 129.512 59.866C130.315 59.8106 130.343 60.7802 130.454 61.4173C130.537 61.916 130.62 62.4424 130.731 63.218Z" fill="#212124"/>
<path d="M154.445 63.883C154.445 66.487 151.951 68.8141 149.236 68.8141C146.355 68.7864 144.222 66.7364 144.222 63.9384C144.222 61.6667 146.383 59.035 148.239 58.9796C150.012 58.9242 151.73 58.8965 153.032 60.4201C153.918 61.4174 154.445 62.5532 154.445 63.883ZM152.117 64.5201C152.256 62.9134 151.619 61.8884 150.234 61.2789C149.929 61.1404 149.597 61.0296 149.347 60.808C148.932 60.4478 148.516 60.5309 148.101 60.6694C145.967 61.4451 145.33 64.4924 147.02 65.9884C148.128 66.958 149.403 67.0134 150.732 66.4316C151.674 66.0715 152.422 65.6005 152.117 64.5201Z" fill="#212124"/>
<path d="M165.055 64.3815C164.445 64.3815 163.697 64.1599 163.282 64.4369C162.866 64.714 163.254 65.4897 163.143 66.0714C162.977 66.8194 162.811 67.5674 162.755 68.3708C162.728 68.9802 162.312 69.5066 161.647 69.4789C160.982 69.4512 160.539 68.9802 160.511 68.2876C160.456 67.2903 160.401 66.2653 160.401 65.268C160.401 64.5478 160.151 64.243 159.376 64.3261C158.877 64.3815 158.351 64.2707 157.88 64.1876C157.353 64.0768 156.855 63.8552 156.91 63.218C156.965 62.5809 157.492 62.3592 158.074 62.3038C158.544 62.2761 159.015 62.2761 159.486 62.3315C159.957 62.3592 160.151 62.193 160.124 61.6944C160.096 60.9464 160.124 60.1984 160.151 59.4781C160.151 58.9241 160.345 58.4531 160.927 58.3146C161.509 58.1484 161.896 58.5085 162.174 58.9795C162.451 59.4504 162.534 59.9768 162.589 60.5308C162.838 62.6917 162.423 62.3592 164.694 62.47C165.276 62.4977 165.83 62.5532 166.412 62.6363C166.994 62.7194 167.492 63.0241 167.437 63.6613C167.382 64.3815 166.855 64.5755 166.19 64.5478C165.83 64.5201 165.442 64.4924 165.082 64.4924C165.055 64.4092 165.055 64.4092 165.055 64.3815Z" fill="#212124"/>
<path d="M35.5438 37.0388C35.4053 29.6975 35.1005 22.3563 35.1282 15.015C35.1282 13.0204 35.1005 12.9096 37.1228 12.965C44.104 13.1035 51.0574 12.3555 58.0662 12.2447C63.0804 12.1616 68.0946 11.9677 73.1088 12.1062C73.9399 12.1339 74.217 12.217 74.217 13.1866C74.1061 20.0846 74.217 26.9827 74.3832 33.8807C74.4386 36.0692 74.494 38.2854 74.5771 40.4739C74.771 46.5686 75.242 52.6355 75.048 58.7301C74.9926 60.2538 74.7987 61.7774 74.7433 63.2734C74.7156 64.7416 74.771 64.7139 73.3028 64.7971C71.4467 64.9079 69.5629 64.8525 67.7345 65.268C66.5156 65.545 65.2966 65.3234 64.1054 65.3511C57.7061 65.4619 51.3067 65.0741 44.9073 65.739C42.2756 66.016 39.6161 65.9052 36.9843 66.016C36.458 66.0437 36.4303 65.7944 36.458 65.4342C36.4857 62.3315 36.1255 59.2288 36.0424 56.1261C35.8485 49.7544 35.71 43.3827 35.5438 37.0388ZM68.1777 38.5624C68.2331 36.2077 68.0392 34.1577 67.0696 32.4124C63.2189 25.5144 57.6507 24.0739 51.3344 26.0962C46.3756 27.7029 43.5776 31.2489 43.1621 36.5955C42.8019 41.305 44.8242 44.9895 48.204 47.7875C51.002 50.0868 54.5202 50.9733 58.2601 50.0037C60.5317 49.422 62.8311 48.7848 64.4933 47.0395C66.848 44.6017 68.3717 41.7483 68.1777 38.5624Z" fill="#96CFFF"/>
<path d="M39.5884 10.7764C48.7303 7.61828 57.5952 3.73988 67.2912 2.35474C67.2912 4.65407 67.2912 7.03652 67.2912 9.41896C67.2912 10.0561 66.848 9.88991 66.5156 9.91761C63.3574 9.94532 60.1993 10.0561 57.0689 9.97302C51.9439 9.83451 46.8465 10.3332 41.7492 10.6933C41.0289 10.6933 40.3087 10.721 39.5884 10.7764Z" fill="#96CFFF"/>
<path d="M68.1778 38.5624C68.3717 41.7482 66.8481 44.6016 64.4933 47.0395C62.8312 48.7848 60.5318 49.4219 58.2602 50.0037C54.5203 50.9733 51.002 50.0868 48.2041 47.7875C44.8243 44.9895 42.802 41.2773 43.1621 36.5955C43.55 31.2489 46.348 27.7029 51.3345 26.0961C57.6507 24.0738 63.2467 25.5144 67.0697 32.4124C68.0393 34.1577 68.2332 36.2077 68.1778 38.5624ZM44.9074 37.3712C44.9074 37.7313 44.9351 38.1192 44.9074 38.4793C44.8243 39.5043 45.2953 40.0584 46.2372 40.4462C47.0682 40.7786 47.927 40.9726 48.7858 41.1111C51.8608 41.6374 54.8804 41.1388 57.0413 39.0057C59.7007 36.3739 60.8366 32.911 60.4487 29.088C60.3933 28.4509 60.0332 28.1184 59.4791 27.8137C57.9278 27.0103 56.3487 27.3982 54.7419 27.3982C49.7 27.4259 44.7966 31.7198 44.9074 37.3712ZM46.9574 43.355C49.3676 47.0672 55.3791 48.7571 59.4237 47.5658C63.3852 46.3746 65.3244 43.078 66.0724 38.8117C66.6819 35.2935 64.8535 31.3043 62.4156 30.0299C62.942 34.3239 61.5845 38.0084 58.371 40.6678C55.1575 43.3273 51.2514 44.103 46.9574 43.355Z" fill="#212124"/>
<path d="M46.9575 43.355C51.2515 44.103 55.1576 43.3273 58.3711 40.6678C61.5846 38.0083 62.9421 34.3238 62.4157 30.0299C64.8536 31.3042 66.6542 35.3212 66.0725 38.8117C65.3245 43.078 63.3853 46.3746 59.4238 47.5658C55.3792 48.757 49.3677 47.0949 46.9575 43.355Z" fill="#96CFFF"/>
</svg>
